<svg data-v-fde0c5aa="" xmlns="http://www.w3.org/2000/svg" viewBox="0 0 300 300" class="iconAboveSlogan"><!----><defs data-v-fde0c5aa=""><!----></defs><rect data-v-fde0c5aa="" fill="transparent" x="0" y="0" width="300px" height="300px" class="logo-background-square"></rect><defs data-v-fde0c5aa=""><!----></defs><g data-v-fde0c5aa="" id="f23080ac-3ab7-4f26-8352-28c92e04684f" fill="#19103f" transform="matrix(2.336012363433838,0,0,2.336012363433838,18.03811462464462,148.01949906299973)"><path d="M9.04 5.67C9.04 5.82 8.92 5.95 8.78 5.95L4.27 5.95L6.55 8.69L7.34 8.69C7.53 8.69 7.67 8.81 7.67 8.96L7.67 10.60C7.67 10.75 7.53 10.88 7.34 10.88L3.02 10.88L3.02 15.51C3.02 15.67 2.91 15.81 2.76 15.81L1.12 15.81C0.97 15.81 0.84 15.67 0.84 15.51L0.84 8.69L3.70 8.69L0.84 5.25L0.84 4.06C0.84 3.89 0.97 3.77 1.12 3.77L8.78 3.77C8.92 3.77 9.04 3.89 9.04 4.06ZM16.90 11.16C16.90 11.00 16.77 10.89 16.62 10.89L15.69 10.89L13.99 4.05L13.97 3.98C13.93 3.88 13.83 3.81 13.72 3.81L11.89 3.81C11.77 3.81 11.68 3.88 11.63 3.98L11.62 4.06L8.78 15.41C8.78 15.43 8.78 15.44 8.76 15.44L8.76 15.50C8.76 15.67 8.89 15.79 9.03 15.79L10.72 15.79C10.84 15.79 10.95 15.71 10.98 15.60C10.98 15.58 10.99 15.57 10.99 15.57L11.61 13.06L14.00 13.06L14.62 15.55L14.63 15.60C14.67 15.71 14.77 15.79 14.88 15.79L16.58 15.79C16.73 15.79 16.84 15.67 16.84 15.50L16.84 15.47L16.83 15.40L16.24 13.06L16.62 13.06C16.77 13.06 16.90 12.95 16.90 12.80ZM12.15 10.89L12.81 8.30L13.45 10.89ZM26.50 12.28C26.50 12.38 26.49 13.22 25.96 14.07C25.47 14.88 24.46 15.83 22.40 15.83C20.78 15.83 19.50 15.15 18.82 13.93C18.49 13.34 18.37 12.77 18.33 12.40C18.33 12.38 18.31 12.35 18.31 12.32C18.31 12.18 18.42 12.05 18.56 12.04L20.29 12.04C20.40 12.05 20.48 12.12 20.51 12.24L20.51 12.25C20.51 12.26 20.52 12.28 20.52 12.29C20.55 12.46 20.62 12.70 20.76 12.91C21.06 13.40 21.60 13.65 22.40 13.65C23.25 13.65 23.80 13.41 24.09 12.94C24.29 12.61 24.32 12.26 24.32 12.26C24.32 11.87 24.22 11.41 23.49 11.12C22.96 10.89 22.40 10.88 22.40 10.88C22.30 10.88 21.41 10.86 20.48 10.50C19.07 9.93 18.30 8.81 18.30 7.34C18.30 7.20 18.33 5.89 19.35 4.87C20.08 4.13 21.11 3.75 22.40 3.75C23.23 3.75 24.42 3.93 25.33 4.86C26.21 5.75 26.43 6.89 26.49 7.45L26.49 7.48C26.49 7.64 26.38 7.77 26.22 7.77L24.53 7.77C24.42 7.76 24.32 7.66 24.29 7.55L24.29 7.50C24.25 7.31 24.18 7.03 24.04 6.75C23.84 6.40 23.46 5.94 22.40 5.94C21.71 5.94 21.21 6.09 20.89 6.41C20.51 6.79 20.48 7.34 20.48 7.34C20.48 7.73 20.58 8.18 21.31 8.47C21.84 8.68 22.40 8.69 22.40 8.69C22.50 8.69 23.39 8.71 24.32 9.09C25.73 9.67 26.50 10.81 26.50 12.28ZM35.34 5.68C35.34 5.84 35.18 5.96 35 5.96L32.33 5.96L32.33 15.47C32.33 15.65 32.20 15.81 32.06 15.81L30.41 15.81C30.27 15.81 30.14 15.65 30.14 15.47L30.14 5.96L27.41 5.96C27.26 5.96 27.13 5.84 27.13 5.68L27.13 4.05C27.13 3.89 27.26 3.78 27.41 3.78L35 3.78C35.18 3.78 35.34 3.89 35.34 4.05ZM38.29 14.77C38.29 15.36 37.80 15.85 37.18 15.85C36.60 15.85 36.11 15.36 36.11 14.77C36.11 14.15 36.60 13.65 37.18 13.65C37.80 13.65 38.29 14.15 38.29 14.77ZM54.22 15.29C54.59 15.12 54.94 14.92 55.27 14.69L55.27 14.67L55.29 14.67C55.29 14.66 55.29 14.66 55.30 14.66C55.41 14.56 55.43 14.38 55.31 14.27L54.26 13.02C54.18 12.91 54.01 12.88 53.90 12.95C53.90 12.96 53.89 12.96 53.89 12.96C52.29 14.04 50.09 13.76 48.82 12.26C47.45 10.64 47.64 8.22 49.25 6.85C50.53 5.77 52.32 5.66 53.68 6.45C53.79 6.51 53.90 6.50 53.98 6.43L55.30 5.32C55.41 5.22 55.43 5.04 55.31 4.91L55.29 4.89L55.24 4.86C53.05 3.29 49.98 3.35 47.84 5.17C45.29 7.32 44.98 11.14 47.14 13.68C48.92 15.78 51.83 16.35 54.22 15.29ZM63.36 15.54C63.36 15.69 63.21 15.81 63.01 15.81L57.08 15.81C56.92 15.81 56.80 15.69 56.80 15.54L56.80 4.12C56.80 3.93 56.92 3.78 57.08 3.78L58.72 3.78C58.87 3.78 58.98 3.93 58.98 4.12L58.98 13.62L63.01 13.62C63.21 13.62 63.36 13.75 63.36 13.90ZM72.97 15.54C72.97 15.69 72.84 15.82 72.70 15.82L65.04 15.82C64.89 15.82 64.76 15.69 64.76 15.54L64.76 4.06C64.76 3.91 64.89 3.78 65.04 3.78L72.42 3.78C72.58 3.78 72.70 3.91 72.70 4.06L72.70 5.70C72.70 5.85 72.58 5.96 72.42 5.96L66.95 5.96L66.95 8.71L72.14 8.71C72.30 8.71 72.42 8.82 72.42 8.97L72.42 10.61C72.42 10.77 72.30 10.89 72.14 10.89L66.95 10.89L66.95 13.62L72.70 13.62C72.84 13.62 72.97 13.75 72.97 13.90ZM82.64 11.16C82.64 11.00 82.52 10.89 82.36 10.89L81.44 10.89L79.73 4.05L79.72 3.98C79.67 3.88 79.58 3.81 79.46 3.81L77.63 3.81C77.52 3.81 77.42 3.88 77.38 3.98L77.36 4.06L74.52 15.41C74.52 15.43 74.52 15.44 74.51 15.44L74.51 15.50C74.51 15.67 74.63 15.79 74.77 15.79L76.47 15.79C76.58 15.79 76.69 15.71 76.72 15.60C76.72 15.58 76.73 15.57 76.73 15.57L77.35 13.06L79.74 13.06L80.36 15.55L80.37 15.60C80.42 15.71 80.51 15.79 80.63 15.79L82.32 15.79C82.47 15.79 82.59 15.67 82.59 15.50L82.59 15.47L82.57 15.40L81.98 13.06L82.36 13.06C82.52 13.06 82.64 12.95 82.64 12.80ZM77.90 10.89L78.55 8.30L79.20 10.89ZM92.53 15.89L86.51 9.32L86.51 15.53C86.51 15.68 86.39 15.81 86.24 15.81L84.60 15.81C84.45 15.81 84.32 15.68 84.32 15.53L84.32 3.70L90.34 10.26L90.34 4.06C90.34 3.91 90.47 3.78 90.61 3.78L92.26 3.78C92.40 3.78 92.53 3.91 92.53 4.06ZM102.41 15.54C102.41 15.69 102.28 15.82 102.14 15.82L94.49 15.82C94.33 15.82 94.21 15.69 94.21 15.54L94.21 4.06C94.21 3.91 94.33 3.78 94.49 3.78L101.86 3.78C102.02 3.78 102.14 3.91 102.14 4.06L102.14 5.70C102.14 5.85 102.02 5.96 101.86 5.96L96.39 5.96L96.39 8.71L101.58 8.71C101.74 8.71 101.86 8.82 101.86 8.97L101.86 10.61C101.86 10.77 101.74 10.89 101.58 10.89L96.39 10.89L96.39 13.62L102.14 13.62C102.28 13.62 102.41 13.75 102.41 13.90ZM111.66 15.37L109.44 11.42L109.13 10.89L109.06 10.77C111.09 10.32 112.14 8.82 112.14 7.35C112.14 6.38 111.69 5.46 110.92 4.82C110.14 4.14 109.03 3.79 107.76 3.79L103.67 3.79C103.52 3.79 103.39 3.92 103.39 4.06L103.39 5.17L103.53 5.42L103.53 5.43L105.39 8.71L103.39 8.71L103.39 15.54C103.39 15.69 103.52 15.82 103.67 15.82L105.31 15.82C105.45 15.82 105.57 15.69 105.57 15.54L105.57 10.89L106.62 10.89L106.92 11.42L109.31 15.65L109.34 15.69C109.38 15.76 109.47 15.82 109.56 15.82L111.44 15.82C111.59 15.82 111.71 15.69 111.71 15.53C111.71 15.48 111.71 15.44 111.68 15.40ZM107.60 8.19L106.36 5.98L107.76 5.98C109.27 5.98 109.94 6.69 109.94 7.35C109.94 7.91 109.44 8.53 108.30 8.68C108.18 8.69 108.04 8.71 107.90 8.71Z"></path></g><defs data-v-fde0c5aa=""><!----></defs><g data-v-fde0c5aa="" id="e9f3d2b0-ae13-47d8-b105-37ea201d6c9b" stroke="none" fill="#19103f" transform="matrix(0.47043609619140625,0,0,0.47043609619140625,128.8312945504068,96.57159039804944)"><path d="M21.666 65.974h17.475V54.759c0-4.339-2.027-6.023-6.733-6.023h-7.365V3.144C25.042 1 23.906 0 21.655 0c-2.147 0-3.387 1.047-3.387 3.144v45.592h-7.354c-4.706 0-6.733 1.685-6.733 6.023v11.215h17.475M63.344 19.824c1.416 0 2.567-1.152 2.567-2.568s-1.151-2.568-2.567-2.568-2.568 1.152-2.568 2.568 1.152 2.568 2.568 2.568zm0-2.917a.35.35 0 1 1 0 .699.35.35 0 0 1 0-.699zM55.077 13.062a3.35 3.35 0 0 0 3.346-3.346c0-1.844-1.501-3.345-3.346-3.345s-3.346 1.5-3.346 3.345a3.35 3.35 0 0 0 3.346 3.346zm0-3.774a.43.43 0 1 1 0 .859.43.43 0 0 1 0-.859zM42.403 26.329a5.944 5.944 0 0 0 5.937-5.937 5.944 5.944 0 0 0-5.937-5.935 5.942 5.942 0 0 0-5.936 5.935 5.943 5.943 0 0 0 5.936 5.937zm0-8.954a3.023 3.023 0 0 1 3.02 3.018 3.023 3.023 0 0 1-3.02 3.02 3.022 3.022 0 0 1-3.019-3.02 3.022 3.022 0 0 1 3.019-3.018zM21.655 67.673l-17.474.009-3.18 21.786h41.308L39.13 67.682z"></path><path d="M86.368 32.81c0-5.871-4.776-10.648-10.647-10.648-4.459 0-8.284 2.755-9.868 6.65-1.57-2.11-4.075-3.485-6.901-3.485-4.363 0-7.971 3.268-8.524 7.483h-6.479c0 6.626 5.391 12.017 12.017 12.017s12.017-5.391 12.017-12.017h.006c0-4.263 3.47-7.731 7.733-7.731s7.73 3.468 7.73 7.731H70.898c0 8.235-6.699 14.934-14.934 14.934s-14.933-6.7-14.933-14.934H28.267v2.374l1.669.008 1.409 9.869h1.062c8.603 0 10.409 5.274 10.409 9.699v12.173l.032.22 3.256 22.316H79.581l7.748-54.276 1.669-.008V32.81h-2.63zm-27.668 0h-5.325a5.697 5.697 0 0 1 5.576-4.566 5.697 5.697 0 0 1 5.577 4.566H58.7z"></path></g><defs data-v-fde0c5aa=""><!----></defs><g data-v-fde0c5aa="" id="865e71f7-9cf1-4d04-a0ea-72bb97060c68" fill="#000000" transform="matrix(0.8126322627067566,0,0,0.8126322627067566,51.76990069998371,190.5246980603585)"><path d="M4.34 14.78L4.34 14.78L4.34 14.78Q4.94 14.78 5.37 14.58L5.37 14.58L5.37 14.58Q5.80 14.38 6.07 14.04L6.07 14.04L6.07 14.04Q6.34 13.69 6.48 13.25L6.48 13.25L6.48 13.25Q6.61 12.81 6.61 12.32L6.61 12.32L6.61 12.15L7.78 12.15L7.78 12.32L7.78 12.32Q7.78 13.06 7.56 13.71L7.56 13.71L7.56 13.71Q7.34 14.36 6.90 14.85L6.90 14.85L6.90 14.85Q6.47 15.33 5.82 15.60L5.82 15.60L5.82 15.60Q5.18 15.88 4.34 15.88L4.34 15.88L4.34 15.88Q2.72 15.88 1.81 14.85L1.81 14.85L1.81 14.85Q0.90 13.83 0.90 11.87L0.90 11.87L0.90 9.69L0.90 9.69Q0.90 7.78 1.81 6.73L1.81 6.73L1.81 6.73Q2.72 5.68 4.34 5.68L4.34 5.68L4.34 5.68Q5.18 5.68 5.82 5.96L5.82 5.96L5.82 5.96Q6.47 6.23 6.90 6.71L6.90 6.71L6.90 6.71Q7.34 7.20 7.56 7.85L7.56 7.85L7.56 7.85Q7.78 8.50 7.78 9.24L7.78 9.24L7.78 9.41L6.61 9.41L6.61 9.24L6.61 9.24Q6.59 8.76 6.46 8.32L6.46 8.32L6.46 8.32Q6.33 7.87 6.05 7.53L6.05 7.53L6.05 7.53Q5.78 7.18 5.36 6.98L5.36 6.98L5.36 6.98Q4.94 6.78 4.34 6.78L4.34 6.78L4.34 6.78Q3.21 6.78 2.64 7.60L2.64 7.60L2.64 7.60Q2.07 8.43 2.07 9.77L2.07 9.77L2.07 11.79L2.07 11.79Q2.07 13.23 2.64 14.01L2.64 14.01L2.64 14.01Q3.21 14.78 4.34 14.78ZM16.79 15.68L16.79 5.88L17.96 5.88L17.96 14.59L23.09 14.59L23.09 15.68L16.79 15.68ZM32.45 15.68L32.45 5.88L38.39 5.88L38.39 6.97L33.63 6.97L33.63 10.22L38.30 10.22L38.30 11.31L33.63 11.31L33.63 14.59L38.47 14.59L38.47 15.68L32.45 15.68ZM53.80 15.68L53.09 13.24L48.89 13.24L48.17 15.68L46.91 15.68L49.88 5.88L52.09 5.88L55.06 15.68L53.80 15.68ZM51.07 6.38L50.90 6.38L49.21 12.15L52.77 12.15L51.07 6.38ZM65.65 5.88L68.47 15.18L68.64 15.18L68.64 5.88L69.82 5.88L69.82 15.68L67.47 15.68L64.64 6.38L64.47 6.38L64.47 15.68L63.29 15.68L63.29 5.88L65.65 5.88ZM79.02 6.97L79.02 5.88L85.23 5.88L85.23 6.97L82.71 6.97L82.71 14.59L85.23 14.59L85.23 15.68L79.02 15.68L79.02 14.59L81.54 14.59L81.54 6.97L79.02 6.97ZM96.78 5.88L99.61 15.18L99.78 15.18L99.78 5.88L100.95 5.88L100.95 15.68L98.60 15.68L95.77 6.38L95.61 6.38L95.61 15.68L94.43 15.68L94.43 5.88L96.78 5.88ZM112.32 12.07L112.32 10.98L116.69 10.98L116.69 15.68L115.60 15.68L115.60 14.50L115.43 14.50L115.43 14.50Q115.19 15.12 114.59 15.50L114.59 15.50L114.59 15.50Q113.99 15.88 113.19 15.88L113.19 15.88L113.19 15.88Q111.61 15.88 110.70 14.85L110.70 14.85L110.70 14.85Q109.80 13.83 109.80 11.87L109.80 11.87L109.80 9.69L109.80 9.69Q109.80 7.78 110.71 6.73L110.71 6.73L110.71 6.73Q111.62 5.68 113.25 5.68L113.25 5.68L113.25 5.68Q114.09 5.68 114.73 5.96L114.73 5.96L114.73 5.96Q115.37 6.23 115.81 6.71L115.81 6.71L115.81 6.71Q116.24 7.20 116.47 7.85L116.47 7.85L116.47 7.85Q116.69 8.50 116.69 9.24L116.69 9.24L116.69 9.41L115.51 9.41L115.51 9.24L115.51 9.24Q115.51 8.76 115.38 8.32L115.38 8.32L115.38 8.32Q115.25 7.87 114.97 7.53L114.97 7.53L114.97 7.53Q114.70 7.18 114.28 6.98L114.28 6.98L114.28 6.98Q113.85 6.78 113.25 6.78L113.25 6.78L113.25 6.78Q112.11 6.78 111.55 7.60L111.55 7.60L111.55 7.60Q110.98 8.43 110.98 9.77L110.98 9.77L110.98 11.79L110.98 11.79Q110.98 13.23 111.55 14.01L111.55 14.01L111.55 14.01Q112.11 14.78 113.27 14.78L113.27 14.78L113.27 14.78Q114.32 14.78 114.92 14.11L114.92 14.11L114.92 14.11Q115.51 13.44 115.51 12.24L115.51 12.24L115.51 12.07L112.32 12.07ZM146.71 9.21L146.71 8.71L146.71 8.71Q146.71 8.23 146.52 7.87L146.52 7.87L146.52 7.87Q146.33 7.50 146.01 7.27L146.01 7.27L146.01 7.27Q145.68 7.03 145.26 6.90L145.26 6.90L145.26 6.90Q144.84 6.78 144.38 6.78L144.38 6.78L144.38 6.78Q143.98 6.78 143.61 6.88L143.61 6.88L143.61 6.88Q143.25 6.99 142.96 7.18L142.96 7.18L142.96 7.18Q142.67 7.38 142.51 7.66L142.51 7.66L142.51 7.66Q142.34 7.95 142.34 8.33L142.34 8.33L142.34 8.41L142.34 8.41Q142.34 8.82 142.51 9.11L142.51 9.11L142.51 9.11Q142.67 9.39 143.00 9.60L143.00 9.60L143.00 9.60Q143.33 9.80 143.82 9.93L143.82 9.93L143.82 9.93Q144.31 10.07 144.97 10.16L144.97 10.16L144.97 10.16Q146.51 10.40 147.24 11.07L147.24 11.07L147.24 11.07Q147.97 11.73 147.97 12.85L147.97 12.85L147.97 13.02L147.97 13.02Q147.97 13.65 147.75 14.17L147.75 14.17L147.75 14.17Q147.53 14.70 147.10 15.08L147.10 15.08L147.10 15.08Q146.68 15.46 146.05 15.67L146.05 15.67L146.05 15.67Q145.42 15.88 144.59 15.88L144.59 15.88L144.59 15.88Q143.65 15.88 142.93 15.60L142.93 15.60L142.93 15.60Q142.21 15.33 141.73 14.85L141.73 14.85L141.73 14.85Q141.25 14.36 140.99 13.71L140.99 13.71L140.99 13.71Q140.74 13.06 140.74 12.29L140.74 12.29L140.74 11.87L141.92 11.87L141.92 12.21L141.92 12.21Q141.92 13.50 142.63 14.14L142.63 14.14L142.63 14.14Q143.33 14.78 144.59 14.78L144.59 14.78L144.59 14.78Q145.68 14.78 146.24 14.30L146.24 14.30L146.24 14.30Q146.79 13.82 146.79 13.02L146.79 13.02L146.79 12.94L146.79 12.94Q146.79 12.17 146.22 11.76L146.22 11.76L146.22 11.76Q145.66 11.35 144.38 11.17L144.38 11.17L144.38 11.17Q143.64 11.07 143.04 10.87L143.04 10.87L143.04 10.87Q142.45 10.67 142.03 10.34L142.03 10.34L142.03 10.34Q141.61 10.01 141.39 9.55L141.39 9.55L141.39 9.55Q141.16 9.09 141.16 8.46L141.16 8.46L141.16 8.29L141.16 8.29Q141.16 7.71 141.40 7.24L141.40 7.24L141.40 7.24Q141.64 6.76 142.06 6.41L142.06 6.41L142.06 6.41Q142.49 6.06 143.09 5.87L143.09 5.87L143.09 5.87Q143.68 5.68 144.40 5.68L144.40 5.68L144.40 5.68Q145.22 5.68 145.87 5.92L145.87 5.92L145.87 5.92Q146.52 6.16 146.97 6.56L146.97 6.56L146.97 6.56Q147.42 6.96 147.65 7.50L147.65 7.50L147.65 7.50Q147.88 8.04 147.88 8.62L147.88 8.62L147.88 9.21L146.71 9.21ZM157.00 15.68L157.00 5.88L162.93 5.88L162.93 6.97L158.17 6.97L158.17 10.22L162.85 10.22L162.85 11.31L158.17 11.31L158.17 14.59L163.02 14.59L163.02 15.68L157.00 15.68ZM178.60 12.15L178.60 15.68L177.42 15.68L177.42 12.40L177.42 12.40Q177.42 12.04 177.25 11.84L177.25 11.84L177.25 11.84Q177.09 11.65 176.67 11.65L176.67 11.65L173.61 11.65L173.61 15.68L172.44 15.68L172.44 5.88L175.94 5.88L175.94 5.88Q176.69 5.88 177.25 6.10L177.25 6.10L177.25 6.10Q177.81 6.31 178.19 6.68L178.19 6.68L178.19 6.68Q178.56 7.04 178.75 7.53L178.75 7.53L178.75 7.53Q178.93 8.01 178.93 8.54L178.93 8.54L178.93 8.96L178.93 8.96Q178.93 9.51 178.63 10.05L178.63 10.05L178.63 10.05Q178.33 10.60 177.70 10.89L177.70 10.89L177.70 11.06L177.70 11.06Q178.12 11.13 178.36 11.40L178.36 11.40L178.36 11.40Q178.60 11.66 178.60 12.15L178.60 12.15ZM173.61 6.97L173.61 10.56L175.80 10.56L175.80 10.56Q176.79 10.56 177.28 10.13L177.28 10.13L177.28 10.13Q177.76 9.70 177.76 8.88L177.76 8.88L177.76 8.62L177.76 8.62Q177.76 7.88 177.28 7.43L177.28 7.43L177.28 7.43Q176.79 6.97 175.80 6.97L175.80 6.97L173.61 6.97ZM189.97 15.68L187.19 5.88L188.45 5.88L191.02 15.18L191.18 15.18L193.75 5.88L195.01 5.88L192.23 15.68L189.97 15.68ZM203.56 6.97L203.56 5.88L209.78 5.88L209.78 6.97L207.26 6.97L207.26 14.59L209.78 14.59L209.78 15.68L203.56 15.68L203.56 14.59L206.08 14.59L206.08 6.97L203.56 6.97ZM222.29 14.78L222.29 14.78L222.29 14.78Q222.89 14.78 223.32 14.58L223.32 14.58L223.32 14.58Q223.75 14.38 224.02 14.04L224.02 14.04L224.02 14.04Q224.29 13.69 224.43 13.25L224.43 13.25L224.43 13.25Q224.56 12.81 224.56 12.32L224.56 12.32L224.56 12.15L225.74 12.15L225.74 12.32L225.74 12.32Q225.74 13.06 225.51 13.71L225.51 13.71L225.51 13.71Q225.29 14.36 224.85 14.85L224.85 14.85L224.85 14.85Q224.42 15.33 223.78 15.60L223.78 15.60L223.78 15.60Q223.13 15.88 222.29 15.88L222.29 15.88L222.29 15.88Q220.67 15.88 219.76 14.85L219.76 14.85L219.76 14.85Q218.85 13.83 218.85 11.87L218.85 11.87L218.85 9.69L218.85 9.69Q218.85 7.78 219.76 6.73L219.76 6.73L219.76 6.73Q220.67 5.68 222.29 5.68L222.29 5.68L222.29 5.68Q223.13 5.68 223.78 5.96L223.78 5.96L223.78 5.96Q224.42 6.23 224.85 6.71L224.85 6.71L224.85 6.71Q225.29 7.20 225.51 7.85L225.51 7.85L225.51 7.85Q225.74 8.50 225.74 9.24L225.74 9.24L225.74 9.41L224.56 9.41L224.56 9.24L224.56 9.24Q224.55 8.76 224.41 8.32L224.41 8.32L224.41 8.32Q224.28 7.87 224.01 7.53L224.01 7.53L224.01 7.53Q223.73 7.18 223.31 6.98L223.31 6.98L223.31 6.98Q222.89 6.78 222.29 6.78L222.29 6.78L222.29 6.78Q221.16 6.78 220.59 7.60L220.59 7.60L220.59 7.60Q220.02 8.43 220.02 9.77L220.02 9.77L220.02 11.79L220.02 11.79Q220.02 13.23 220.59 14.01L220.59 14.01L220.59 14.01Q221.16 14.78 222.29 14.78ZM234.84 15.68L234.84 5.88L240.77 5.88L240.77 6.97L236.01 6.97L236.01 10.22L240.69 10.22L240.69 11.31L236.01 11.31L236.01 14.59L240.86 14.59L240.86 15.68L234.84 15.68Z"></path></g></svg>